:SAMPLES-PER-SECOND 30
:FULLY-SPECIFIED
:DEGREES
391
root  14.0868 40.0596 4.90111 87.752 -81.2235 -94.2706
RightUpLeg  -32.2764 -12.3581 -20.6016
RightLeg  34.3932 -1.87388 -1.60117
RightFoot  34.7218 -8.98145 21.5346
RightToes  -5.28226e-011 1.30204e-014 -6.03759e-014
Spine  24.5549 -2.18999 -14.4518
Spine1  -2.75442 -7.38375 17.7279
HEad  -11.9672 21.4882 -6.87691
LeftShoulder1  1.12257 -0.958199 -18.4781
LeftArm  -14.5874 9.50791 -33.2494
LeftForeArm  -41.4567 -8.50459 -10.7372
LeftHand  1.11702 8.72563 37.1525
RightShoulder  2.05495 3.81654 21.8881
RightArm  -8.31652 -36.5392 38.3911
RightForeArm  -27.1507 49.9521 15.2083
RightHand  -1.03786 -1.1143 -27.9148
LeftUpLeg  -0.785997 5.35197 27.6335
LeftLeg  22.2714 20.6474 9.38848
LeftFoot  13.2277 6.12696 -28.0911
LeftToes  -2.75829e-010 5.07641e-011 -5.51782e-011
392
root  14.2137 38.8914 5.42383 105.139 -82.1037 -111.941
RightUpLeg  -31.6858 -12.2646 -24.0491
RightLeg  33.8115 -1.44983 -1.28999
RightFoot  36.1878 -7.80508 18.2152
RightToes  -5.28226e-011 1.30204e-014 -6.03759e-014
Spine  23.2608 3.04368 -2.06955
Spine1  -1.86245 2.78822 2.26084
HEad  -11.648 1.37596 -1.66999
LeftShoulder1  1.01444 -0.529428 -18.5951
LeftArm  -16.9214 -4.1782 -41.799
LeftForeArm  -40.9712 -12.3805 -9.40091
LeftHand  0.981935 8.21425 38.153
RightShoulder  2.15338 3.64155 24.0448
RightArm  -10.932 -39.6437 30.7316
RightForeArm  -33.6318 38.7961 10.7992
RightHand  -1.35934 0.313974 -27.2648
LeftUpLeg  -1.19123 7.05758 26.1505
LeftLeg  28.4948 18.0587 10.6193
LeftFoot  0.920647 3.58204 -32.25
LeftToes  -2.75829e-010 5.07641e-011 -5.51782e-011
393
root  14.5023 37.5109 5.51955 130.907 -81.784 -139.034
RightUpLeg  -32.8255 -7.11247 -27.3345
RightLeg  36.2172 -2.34361 -2.08619
RightFoot  37.838 -6.4531 14.6593
RightToes  -5.28226e-011 1.30204e-014 -6.03759e-014
Spine  25.8063 6.43898 3.79313
Spine1  -1.81344 8.99777 -7.48815
HEad  -13.5745 -7.61507 1.02749
LeftShoulder1  1.12897 -1.34471 -16.5858
LeftArm  -22.5069 -2.74637 -49.6699
LeftForeArm  -38.8062 -24.565 -7.22059
LeftHand  0.620967 7.26397 36.545
RightShoulder  1.95424 3.06436 23.5956
RightArm  -5.75874 -35.6679 25.9208
RightForeArm  -40.6143 25.1594 7.35884
RightHand  -1.69842 1.12777 -29.8607
LeftUpLeg  -1.0566 10.4953 26.1938
LeftLeg  34.995 13.1648 10.0704
LeftFoot  -8.08545 1.00715 -32.6006
LeftToes  -2.75829e-010 5.07641e-011 -5.51782e-011
394
root  14.8656 36.1299 5.0715 132.506 -82.3035 -141.753
RightUpLeg  -33.6029 -2.02853 -28.9841
RightLeg  40.0776 -1.7246 -1.80135
RightFoot  39.4671 -4.48006 10.0337
RightToes  -5.28226e-011 1.30204e-014 -6.03759e-014
Spine  28.1106 6.15599 -1.04935
Spine1  -2.03381 6.99905 -3.96623
HEad  -15.707 -0.671924 -0.707709
LeftShoulder1  1.31845 -2.41903 -15.4217
LeftArm  -33.0608 9.2163 -49.3158
LeftForeArm  -34.8605 -38.5243 -10.5431
LeftHand  0.646809 7.39154 35.6922
RightShoulder  1.46814 2.07755 19.886
RightArm  -8.78766 -25.3446 28.0691
RightForeArm  -41.0172 20.2017 7.20881
RightHand  -1.73954 0.813003 -31.9817
LeftUpLeg  -3.28244 13.2865 28.0441
LeftLeg  41.3574 7.7276 7.62376
LeftFoot  -14.1754 -0.733458 -32.1758
LeftToes  -2.75829e-010 5.07641e-011 -5.51782e-011
395
root  15.1735 34.8139 4.20474 101.366 -83.6972 -110.996
RightUpLeg  -32.7104 -0.910913 -27.388
RightLeg  43.7143 -1.41954 -1.76739
RightFoot  39.4896 -2.11445 4.99775
RightToes  -5.28226e-011 1.30204e-014 -6.03759e-014
Spine  29.4456 3.44721 -11.4153
Spine1  -1.55922 -0.637041 8.73966
HEad  -17.4981 15.5074 -4.141
LeftShoulder1  1.83093 -4.29404 -16.7153
LeftArm  -34.1544 22.4555 -41.3969
LeftForeArm  -37.2289 -41.9014 -11.956
LeftHand  0.775702 7.79261 35.7705
RightShoulder  0.984429 0.750323 16.6081
RightArm  -19.3947 -13.4558 36.3532
RightForeArm  -35.6747 26.4844 7.22345
RightHand  -1.76558 0.779407 -32.5967
LeftUpLeg  -8.64435 13.8859 31.4665
LeftLeg  47.7546 3.00103 3.98261
LeftFoot  -18.114 -1.83523 -32.0298
LeftToes  -2.75829e-010 5.07641e-011 -5.51782e-011
396
root  15.3734 33.5321 3.13607 56.1246 -81.5359 -65.5549
RightUpLeg  -30.6321 -2.69016 -24.5158
RightLeg  46.817 -3.98864 -4.89593
RightFoot  35.1243 -1.96308 5.24423
RightToes  -5.28226e-011 1.30204e-014 -6.03759e-014
Spine  31.7584 0.976408 -19.7211
Spine1  -1.50708 -7.92536 21.5208
HEad  -18.03 28.4037 -5.56222
LeftShoulder1  2.45756 -6.60203 -17.7918
LeftArm  -24.1903 32.0402 -33.3856
LeftForeArm  -40.9417 -35.714 -9.96518
LeftHand  0.748989 7.79156 34.6518
RightShoulder  0.786723 -0.020839 15.99
RightArm  -27.8879 -9.48979 45.5772
RightForeArm  -28.448 41.2898 11.6113
RightHand  -1.73011 0.552578 -33.1379
LeftUpLeg  -15.771 12.3812 35.3133
LeftLeg  53.5825 -0.506659 -0.21688
LeftFoot  -19.6296 -2.26024 -32.0072
LeftToes  -2.75829e-010 5.07641e-011 -5.51782e-011
397
root  15.4452 32.2387 2.0922 33.3819 -77.399 -42.3832
RightUpLeg  -28.1497 -5.62035 -24.6849
RightLeg  50.799 -5.66327 -7.70608
RightFoot  24.4788 -4.72269 15.5375
RightToes  -5.28226e-011 1.30204e-014 -6.03759e-014
Spine  33.8869 0.151522 -21.7464
Spine1  -1.72877 -10.729 26.8133
HEad  -18.2809 28.9555 -3.5824
LeftShoulder1  2.35637 -7.3229 -14.7671
LeftArm  -8.95694 31.7316 -31.2272
LeftForeArm  -43.9855 -28.457 -7.98994
LeftHand  0.571419 7.30942 33.1891
RightShoulder  0.894437 0.38499 16.4224
RightArm  -31.113 -17.0009 50.0911
RightForeArm  -25.0118 55.3557 18.1361
RightHand  -1.53308 -0.198232 -33.5595
LeftUpLeg  -22.9847 8.74497 37.1441
LeftLeg  58.5061 -2.12386 -3.13918
LeftFoot  -19.8876 -2.37262 -32.4968
LeftToes  -2.75829e-010 5.07641e-011 -5.51782e-011
398
root  15.3759 30.901 1.26022 16.3923 -74.6602 -25.5881
RightUpLeg  -25.771 -9.42603 -29.4906
RightLeg  55.8943 -2.5897 -4.39871
RightFoot  11.0403 -5.94665 29.5545
RightToes  -5.28226e-011 1.30204e-014 -6.03759e-014
Spine  34.2998 0.970693 -16.665
Spine1  -0.378667 -7.84609 20.5253
HEad  -21.0999 16.1253 0.643671
LeftShoulder1  1.56423 -5.18337 -10.9824
LeftArm  -0.711554 15.152 -31.3695
LeftForeArm  -44.565 -21.6431 -7.28305
LeftHand  0.439052 6.87742 32.8802
RightShoulder  1.31087 1.6882 18.6476
RightArm  -33.8738 -30.5778 47.3399
RightForeArm  -26.2005 59.4276 21.5332
RightHand  -1.32466 -0.831835 -33.0815
LeftUpLeg  -28.1793 3.57788 35.9817
LeftLeg  63.1297 -1.78041 -3.12914
LeftFoot  -20.878 -2.74935 -33.5143
LeftToes  -2.75829e-010 5.07641e-011 -5.51782e-011
399
root  15.2262 29.6757 0.653998 2.61246 -75.0957 -13.6182
RightUpLeg  -25.3128 -11.8383 -35.0213
RightLeg  61.6247 1.32182 2.09814
RightFoot  1.6976 -4.03933 33.9105
RightToes  -5.28226e-011 1.30204e-014 -6.03759e-014
Spine  34.2175 2.17707 -6.39587
Spine1  2.95875 -1.07081 5.11875
HEad  -24.8168 -0.873639 5.42211
LeftShoulder1  1.48024 -3.035 -15.6431
LeftArm  -5.89199 -7.98725 -26.622
LeftForeArm  -39.8064 -19.5078 -8.32096
LeftHand  0.430977 6.81758 33.4863
RightShoulder  1.94886 2.96846 24.0862
RightArm  -30.9973 -41.3506 39.5365
RightForeArm  -33.1323 53.6449 17.6721
RightHand  -1.45437 -0.403651 -33.1179
LeftUpLeg  -28.4846 0.244068 34.3199
LeftLeg  67.1507 -1.09627 -2.14072
LeftFoot  -22.7055 -3.40273 -34.5452
LeftToes  -2.75829e-010 5.07641e-011 -5.51782e-011
400
root  15.0467 28.7242 0.0382637 -6.21201 -79.6038 -7.75958
RightUpLeg  -27.8797 -9.6864 -36.0322
RightLeg  67.039 1.90099 4.14562
RightFoot  -3.494 -2.1406 30.0482
RightToes  -5.28226e-011 1.30204e-014 -6.03759e-014
Spine  35.5164 2.56306 0.735652
Spine1  5.32748 3.98983 -6.18076
HEad  -25.153 -7.22312 6.27113
LeftShoulder1  2.02513 -3.56669 -22.3724
LeftArm  -14.1936 -12.3805 -19.992
LeftForeArm  -40.5534 -28.4205 -7.73569
LeftHand  0.388126 6.69918 32.9784
RightShoulder  2.05386 2.88201 26.0841
RightArm  -24.6626 -40.3591 34.2591
RightForeArm  -39.1797 45.1842 13.369
RightHand  -1.80559 0.412153 -35.2898
LeftUpLeg  -23.6154 1.79718 35.5568
LeftLeg  69.331 -1.57634 -3.79659
LeftFoot  -24.5322 -4.07165 -35.3925
LeftToes  -2.75829e-010 5.07641e-011 -5.51782e-011
401
root  14.7494 28.0588 -0.853329 -8.81061 -85.3778 -7.18726
RightUpLeg  -30.9586 -3.94939 -33.161
RightLeg  71.0368 0.954577 2.27451
RightFoot  -9.52362 -0.491879 28.0587
RightToes  -5.28226e-011 1.30204e-014 -6.03759e-014
Spine  36.6367 2.32034 -2.55895
Spine1  4.28723 2.36799 -4.20066
HEad  -22.4188 2.43697 0.538503
LeftShoulder1  1.9946 -3.54127 -21.9756
LeftArm  -24.8842 6.18372 -17.8619
LeftForeArm  -39.0607 -36.6026 -10.1172
LeftHand  0.213811 6.17105 30.279
RightShoulder  1.29485 1.26074 20.737
RightArm  -25.5286 -27.2899 38.2577
RightForeArm  -38.9525 39.7786 11.1978
RightHand  -1.94524 0.564438 -36.9223
LeftUpLeg  -17.3945 5.82346 39.9437
LeftLeg  69.0916 -2.66928 -6.87229
LeftFoot  -25.3597 -4.44263 -36.207
LeftToes  -2.75829e-010 5.07641e-011 -5.51782e-011
402
root  14.2802 27.7543 -1.9217 -4.89368 -88.7282 -11.589
RightUpLeg  -31.9934 0.677666 -30.6323
RightLeg  73.5623 0.770192 1.99313
RightFoot  -16.1457 1.18563 30.23
RightToes  -5.28226e-011 1.30204e-014 -6.03759e-014
Spine  36.286 0.957452 -11.8407
Spine1  2.44845 -4.19 5.63139
HEad  -21.7827 20.0654 -7.34643
LeftShoulder1  1.93706 -3.45036 -21.4912
LeftArm  -25.5475 29.8714 -18.1211
LeftForeArm  -40.9756 -33.6474 -9.39502
LeftHand  0.0246666 5.48609 28.7117
RightShoulder  0.761579 -0.191673 16.6302
RightArm  -30.2426 -11.8494 48.5282
RightForeArm  -32.0614 42.9561 12.2375
RightHand  -2.01569 0.629926 -37.7744
LeftUpLeg  -13.1522 6.78136 43.3168
LeftLeg  66.8749 -2.81366 -6.5303
LeftFoot  -24.5178 -4.23504 -36.7043
LeftToes  -2.75829e-010 5.07641e-011 -5.51782e-011
403
root  13.7719 27.979 -2.82658 2.48862 -89.5943 -19.0876
RightUpLeg  -31.177 1.25432 -29.1865
RightLeg  74.4161 1.17036 3.71339
RightFoot  -19.389 2.11571 31.2918
RightToes  -5.28226e-011 1.30204e-014 -6.03759e-014
Spine  35.4285 -1.2095 -15.6181
Spine1  2.54003 -8.52508 10.3511
HEad  -23.0152 30.4283 -11.6345
LeftShoulder1  1.97979 -3.3662 -22.504
LeftArm  -19.2063 38.9419 -21.4306
LeftForeArm  -46.6759 -23.311 -6.98327
LeftHand  0.354353 6.64566 30.9973
RightShoulder  0.863019 0.0792609 17.5792
RightArm  -30.7857 -6.44621 55.5945
RightForeArm  -27.4397 50.42 15.4198
RightHand  -1.99793 0.499327 -38.2338
LeftUpLeg  -10.4939 2.5663 42.8692
LeftLeg  63.1665 -1.10562 -1.78334
LeftFoot  -22.272 -3.5208 -36.9159
LeftToes  -2.75829e-010 5.07641e-011 -5.51782e-011
404
root  13.3501 28.7131 -3.37768 1.29193 -89.3928 -17.7596
RightUpLeg  -29.4444 -1.11652 -28.0695
RightLeg  73.0909 1.47316 4.53063
RightFoot  -18.7226 1.85271 30.0245
RightToes  -5.28226e-011 1.30204e-014 -6.03759e-014
Spine  34.4517 -2.29249 -10.7662
Spine1  2.79424 -7.2658 7.70125
HEad  -21.6432 27.6688 -10.9273
LeftShoulder1  1.5458 -2.29553 -20.1479
LeftArm  -16.8478 36.1631 -30.0057
LeftForeArm  -50.6705 -20.2902 -6.9664
LeftHand  0.873775 8.27998 33.9497
RightShoulder  1.08449 0.838686 18.5411
RightArm  -33.4932 -11.5561 56.347
RightForeArm  -25.7349 56.0734 18.7975
RightHand  -1.91103 0.267937 -38.0838
LeftUpLeg  -8.49598 -3.22683 40.0769
LeftLeg  58.9717 2.25296 4.59433
LeftFoot  -18.4424 -2.33847 -38.3198
LeftToes  -2.75829e-010 5.07641e-011 -5.51782e-011
405
root  13.0493 29.8261 -3.7701 -26.1141 -87.7171 10.7717
RightUpLeg  -26.7523 -4.0713 -28.048
RightLeg  69.2128 1.88337 4.72207
RightFoot  -17.2993 1.46327 29.7767
RightToes  -5.28226e-011 1.30204e-014 -6.03759e-014
Spine  33.8454 -1.49554 -2.53703
Spine1  0.706457 -2.48871 2.52518
HEad  -18.1137 15.2621 -8.38031
LeftShoulder1  1.05305 -0.914395 -17.1986
LeftArm  -21.4867 31.9994 -40.19
LeftForeArm  -45.4137 -29.1513 -8.26169
LeftHand  0.663173 7.49126 34.8966
RightShoulder  1.40029 2.00032 19.0188
RightArm  -37.8475 -22.6789 52.2939
RightForeArm  -27.5599 57.0962 19.6827
RightHand  -1.78147 -0.0167515 -37.4054
LeftUpLeg  -8.7664 -5.16236 37.1443
LeftLeg  55.389 6.8487 11.0269
LeftFoot  -10.1484 0.51854 -40.477
LeftToes  -2.75829e-010 5.07641e-011 -5.51782e-011
